<?xml version="1.0" encoding="utf-8"?>
<!-- Generator: Adobe Illustrator 22.0.1, SVG Export Plug-In . SVG Version: 6.00 Build 0)  -->
<svg version="1.1" id="Camada_1" xmlns="http://www.w3.org/2000/svg" xmlns:xlink="http://www.w3.org/1999/xlink" x="0px" y="0px"
	 viewBox="0 0 96 96" style="enable-background:new 0 0 96 96;" xml:space="preserve">
<style type="text/css">
	.st0{fill:none;stroke:#FFFFFF;stroke-width:2.5;stroke-miterlimit:10;}
	.st1{fill:none;stroke:#FFFFFF;stroke-width:2.5;stroke-linecap:round;stroke-miterlimit:10;}
</style>
<g>
	<polyline class="st0" points="70.1,8.2 95,8.2 95,94.7 1,94.7 1,8.2 31.8,8.2 	"/>
	<rect x="1" y="23.3" class="st0" width="23.5" height="23.8"/>
	<rect x="24.5" y="23.3" class="st0" width="23.5" height="23.8"/>
	<rect x="48" y="23.3" class="st0" width="23.5" height="23.8"/>
	<rect x="71.5" y="23.3" class="st0" width="23.5" height="23.8"/>
	<rect x="1" y="47.1" class="st0" width="23.5" height="23.8"/>
	<rect x="24.5" y="47.1" class="st0" width="23.5" height="23.8"/>
	<rect x="48" y="47.1" class="st0" width="23.5" height="23.8"/>
	<rect x="71.5" y="47.1" class="st0" width="23.5" height="23.8"/>
	<rect x="1" y="70.9" class="st0" width="23.5" height="23.8"/>
	<rect x="24.5" y="70.9" class="st0" width="23.5" height="23.8"/>
	<rect x="48" y="70.9" class="st0" width="23.5" height="23.8"/>
	<rect x="71.5" y="70.9" class="st0" width="23.5" height="23.8"/>
	<g>
		<line class="st1" x1="67" y1="51.7" x2="52.5" y2="66.3"/>
		<line class="st1" x1="67" y1="66.3" x2="52.5" y2="51.7"/>
	</g>
	<path class="st1" d="M25.7,8.2c0-3.8,3.1-6.8,6.8-6.8s6.8,3.1,6.8,6.8S36.3,15,32.5,15"/>
	<path class="st1" d="M42.7,1.3c3.8,0,6.8,3.1,6.8,6.8S46.4,15,42.7,15"/>
	<path class="st1" d="M52.8,1.3c3.8,0,6.8,3.1,6.8,6.8S56.6,15,52.8,15"/>
	<path class="st1" d="M63,1.3c3.8,0,6.8,3.1,6.8,6.8S66.8,15,63,15"/>
</g>
</svg>
